<svg xmlns="http://www.w3.org/2000/svg" width="24" height="24" viewBox="0 0 24 24"><g transform="translate(-3 -3)"><path d="M15,3A2.556,2.556,0,0,1,17.294,4.43h0l9.473,19.3A2.271,2.271,0,0,1,24.728,27H5.273a2.271,2.271,0,0,1-2.04-3.272h0l9.473-19.3A2.556,2.556,0,0,1,15,3Zm0,1.5a1.056,1.056,0,0,0-.948.59h0l-9.473,19.3A.771.771,0,0,0,5.272,25.5H24.729a.771.771,0,0,0,.692-1.111h0l-9.473-19.3A1.056,1.056,0,0,0,15,4.5ZM15,21l.123.007a1.125,1.125,0,1,1-.245,0Zm0-10.5a.75.75,0,0,1,.743.648l.007.1v7.5a.75.75,0,0,1-1.493.1l-.007-.1v-7.5A.75.75,0,0,1,15,10.5Z" fill="#ffffff" fill-rule="evenodd"/></g></svg>