<svg xmlns="http://www.w3.org/2000/svg" viewBox="0 0 33.52 33.52"><defs><style>.cls-1{fill-rule:evenodd;}</style></defs><g id="Layer_2" data-name="Layer 2"><g id="illustrations"><path id="Path_29" data-name="Path 29" class="cls-1" d="M16.76,7.33a6.29,6.29,0,0,0-5,2.42,11.16,11.16,0,0,0,11,2.22A6.29,6.29,0,0,0,16.76,7.33Zm-6,4.32-.08.25a6.29,6.29,0,1,0,12.1,3.43A7.2,7.2,0,0,0,23,14.1a13.23,13.23,0,0,1-12.24-2.45Zm6-6.41A8.38,8.38,0,1,1,9.52,9.4l0,0A8.38,8.38,0,0,1,16.76,5.24Zm0-3.14a14.66,14.66,0,0,0-9.7,25.66,14.66,14.66,0,0,1,19.4,0A14.66,14.66,0,0,0,16.76,2.1Zm0,24.09a12.54,12.54,0,0,0-8,2.87,14.65,14.65,0,0,0,16,0,12.52,12.52,0,0,0-8-2.87ZM16.76,0A16.76,16.76,0,1,1,0,16.76,16.76,16.76,0,0,1,16.76,0Z"/></g></g></svg>