<svg id="Layer_1" data-name="Layer 1" xmlns="http://www.w3.org/2000/svg" viewBox="0 0 436.35 150.47"><defs><style>.cls-1{fill:#231f20;}</style></defs><path class="cls-1" d="M88.27,22.44a8.76,8.76,0,0,0-8.76,8.75V53.85l43.82,43.82L79.51,141.49v22.67a8.76,8.76,0,0,0,14.93,6.21l72.71-72.7L94.47,25a8.74,8.74,0,0,0-6.2-2.55Z" transform="translate(-35.69 -22.44)"/><path class="cls-1" d="M50.63,25a8.78,8.78,0,0,0-14.94,6.22V164.12a8.78,8.78,0,0,0,15,6.19l28.81-28.82V53.85L50.63,25Z" transform="translate(-35.69 -22.44)"/><path class="cls-1" d="M210.29,118h7.59V89.6a20.22,20.22,0,0,1,5.2-4.4A11.61,11.61,0,0,1,229,83.46q4.28,0,6.42,2.51c1.42,1.67,2.14,4.25,2.14,7.75V118h7.59V92.59q0-7.92-3.64-12T231,76.52a16.11,16.11,0,0,0-8,1.94,21.14,21.14,0,0,0-6.17,5.41l1,2.18V77.33h-7.59V118Zm34.31-28.5a23.58,23.58,0,0,1,5.45-4.32,12.54,12.54,0,0,1,6.34-1.74q4.2,0,6.34,2.51c1.42,1.67,2.14,4.25,2.14,7.75V118h7.59V92.59q0-7.92-3.64-12t-10.49-4.08a17.44,17.44,0,0,0-8.28,1.9,27.49,27.49,0,0,0-7,5.45l1.53,5.65Zm39.65,45.94a14.86,14.86,0,0,0,10.49-3.88q4.2-3.87,7.59-12.67L319,77.33h-8.07L299.42,107.6,286.5,77.33h-8.39l18.33,41.34.16-5.33-1.54,3.87q-2.42,6.14-5.49,8.68a10.88,10.88,0,0,1-7.18,2.55H282l1.54,7Zm81.1-18a46.49,46.49,0,0,0,9.64-3.87V89.28H355.45v7.18h11.47v11.71a27.05,27.05,0,0,1-5.73,2.06,33.8,33.8,0,0,1-7.83.77,22,22,0,0,1-11-2.71,18.86,18.86,0,0,1-7.46-7.59,23.08,23.08,0,0,1-2.67-11.26,23.87,23.87,0,0,1,2.63-11.39,19.39,19.39,0,0,1,7.1-7.63,19,19,0,0,1,10-2.7,18.46,18.46,0,0,1,9.25,2.22,24.72,24.72,0,0,1,7,6L374.59,71a27.51,27.51,0,0,0-9.53-8.16,27.89,27.89,0,0,0-13.08-3,28.56,28.56,0,0,0-14.37,3.67A26.58,26.58,0,0,0,327.4,74a31.24,31.24,0,0,0-3.76,15.46,30.84,30.84,0,0,0,3.72,15.3,26.14,26.14,0,0,0,10.45,10.37,31.86,31.86,0,0,0,15.63,3.72,45,45,0,0,0,11.91-1.38Zm53-1.33a19.38,19.38,0,0,0,7.67-7.51,23.14,23.14,0,0,0,0-21.88,19.51,19.51,0,0,0-7.67-7.51,24.66,24.66,0,0,0-22.44,0,19.58,19.58,0,0,0-7.71,7.55,22.69,22.69,0,0,0,0,21.8,19.51,19.51,0,0,0,7.71,7.55,24.58,24.58,0,0,0,22.44,0ZM400,110a12.64,12.64,0,0,1-4.92-5,15.88,15.88,0,0,1,0-14.61,12.64,12.64,0,0,1,4.92-5,15.07,15.07,0,0,1,14.21,0,12.53,12.53,0,0,1,4.89,4.93,16.29,16.29,0,0,1,0,14.61,12.45,12.45,0,0,1-4.85,5A15.23,15.23,0,0,1,400,110ZM448.3,118h6.78l17-40.69h-8L450.57,111H453L439.67,77.33h-8.4l17,40.69Z" transform="translate(-35.69 -22.44)"/></svg>